<?xml version="1.0" standalone="no"?>
<!DOCTYPE svg PUBLIC "-//W3C//DTD SVG 20010904//EN"
 "http://www.w3.org/TR/2001/REC-SVG-20010904/DTD/svg10.dtd">
<svg version="1.0" xmlns="http://www.w3.org/2000/svg"
 width="500.000000pt" height="500.000000pt" viewBox="0 0 500.000000 500.000000"
 preserveAspectRatio="xMidYMid meet">
<metadata>
Created by potrace 1.16, written by Peter Selinger 2001-2019
</metadata>
<g transform="translate(0.000000,500.000000) scale(0.100000,-0.100000)"
fill="#000000" stroke="none">
<path d="M3820 4739 c-47 -5 -106 -15 -132 -23 -34 -10 -50 -10 -58 -2 -9 8
-11 6 -6 -9 5 -16 -4 -29 -44 -58 -48 -36 -49 -36 -63 -17 -13 19 -14 19 -40
-8 -34 -35 -57 -92 -57 -139 0 -129 167 -285 356 -332 25 -7 48 -22 62 -40 41
-56 53 -53 -221 -52 l-158 0 -35 30 c-44 36 -111 56 -159 47 -36 -7 -107 -62
-125 -97 -6 -9 -16 -42 -24 -72 -16 -61 -6 -130 27 -194 31 -58 99 -72 142
-29 14 14 27 20 30 15 10 -16 118 -11 143 7 18 12 26 13 37 4 8 -6 24 -10 37
-8 20 3 23 8 22 48 -1 25 -13 78 -26 118 l-25 73 171 -3 c94 -1 185 1 201 5
30 7 31 5 120 -139 134 -217 168 -271 310 -497 72 -114 138 -220 148 -236 18
-29 18 -31 -8 -80 -33 -66 -58 -175 -49 -215 10 -47 29 -70 97 -116 126 -87
151 -128 107 -175 l-20 -22 20 -18 c19 -17 21 -17 40 0 25 22 44 79 36 110 -9
37 -52 81 -137 142 -52 37 -82 66 -86 82 -6 26 19 137 42 180 15 29 -17 72
245 -344 74 -119 163 -259 197 -313 l63 -97 0 125 0 126 -178 284 c-98 157
-190 304 -205 328 l-28 43 25 32 c14 17 63 66 111 107 99 86 130 123 150 181
46 129 -16 333 -133 440 -78 72 -228 142 -373 176 l-117 27 61 35 c78 46 207
172 235 232 26 53 30 146 8 187 -55 104 -198 151 -486 157 -91 2 -203 0 -250
-6z m408 -69 c229 -29 316 -105 262 -228 -27 -61 -116 -151 -210 -211 -131
-84 -124 -82 -231 -65 -51 8 -94 16 -95 17 -1 1 -65 103 -143 227 -81 129
-137 228 -132 233 30 30 385 47 549 27z m-625 -182 c180 -288 169 -268 142
-258 -140 53 -255 167 -255 253 0 33 31 107 45 107 2 0 32 -46 68 -102z m667
-428 c107 -22 239 -61 278 -83 22 -13 19 -14 -47 -26 -48 -9 -83 -22 -111 -42
-47 -34 -100 -112 -100 -147 0 -26 50 -82 73 -82 7 0 19 -17 25 -37 16 -53 61
-103 94 -105 l27 -2 -20 -22 c-14 -15 -31 -21 -62 -21 -23 0 -34 2 -24 5 22 5
12 22 -13 22 -13 0 -63 71 -179 255 -89 140 -161 258 -161 264 0 10 73 39 101
40 9 1 63 -8 119 -19z m-895 -51 c17 -8 15 -8 -7 -4 -40 8 -94 -19 -118 -57
-24 -40 -25 -73 -4 -113 l15 -30 -21 21 c-11 11 -23 36 -26 56 -15 90 81 165
161 127z m-101 -74 c-17 -26 -12 -58 14 -88 8 -9 12 -20 8 -25 -13 -12 -46 38
-46 69 0 30 19 69 33 69 4 0 0 -11 -9 -25z m1495 -145 c55 -105 71 -236 37
-298 -9 -19 -52 -66 -94 -105 -42 -40 -95 -91 -117 -115 l-41 -43 -47 76 c-26
41 -47 79 -47 84 0 4 18 14 40 21 44 15 47 18 25 34 -12 9 -3 20 51 66 85 70
107 100 134 180 22 65 21 127 -2 175 -15 33 42 -37 61 -75z m-187 30 c27 -21
55 -76 44 -87 -3 -3 -6 0 -6 8 0 25 -54 69 -92 75 -40 7 -88 -14 -112 -48 -9
-12 -16 -16 -16 -9 0 7 15 28 34 47 29 29 41 34 79 34 29 0 53 -7 69 -20z
m-72 -30 c-35 -9 -70 -41 -70 -66 0 -8 -4 -14 -10 -14 -20 0 -10 32 19 61 22
21 38 29 63 28 l33 -1 -35 -8z m-55 -320 c-3 -5 -12 -10 -18 -10 -7 0 -6 4 3
10 19 12 23 12 15 0z m2 -46 c-3 -3 -12 -4 -19 -1 -8 3 -5 6 6 6 11 1 17 -2
13 -5z"/>
<path d="M4508 3403 c-21 -8 -35 -19 -32 -24 10 -16 43 -9 71 16 33 28 17 32
-39 8z"/>
<path d="M750 4635 c-104 -29 -198 -112 -260 -229 -42 -80 -47 -134 -20 -190
29 -61 89 -90 180 -90 86 1 153 29 260 105 122 88 152 102 205 96 88 -9 157
-97 121 -151 -8 -14 -32 -30 -53 -36 -122 -40 -143 -51 -143 -76 0 -34 32 -44
137 -44 l85 0 -6 25 c-7 26 15 45 53 45 12 0 21 5 21 10 0 11 -39 13 -64 4 -9
-3 -16 -12 -16 -20 0 -10 -12 -14 -42 -13 l-43 1 42 15 c60 21 93 63 93 119 0
137 -164 228 -293 163 -23 -12 -83 -50 -133 -84 -111 -75 -176 -100 -247 -92
-60 8 -94 28 -103 63 -17 68 71 216 164 275 66 42 114 52 217 46 109 -6 185
-29 467 -143 114 -46 229 -89 255 -95 27 -7 51 -15 56 -19 10 -8 -295 -496
-334 -533 -16 -15 -29 -36 -29 -45 0 -10 -28 -61 -61 -115 l-62 -98 -46 6
c-128 17 -116 10 -135 77 -44 157 -138 257 -244 258 -75 0 -151 -65 -177 -152
-20 -69 -19 -107 6 -172 33 -89 95 -120 152 -76 l25 20 -10 -40 c-13 -49 -4
-100 22 -133 20 -26 89 -47 150 -47 27 0 30 -3 30 -32 l0 -33 -235 3 c-239 3
-293 -5 -177 -28 31 -6 66 -13 77 -15 19 -4 20 -12 20 -244 l0 -239 -77 -17
c-43 -9 -78 -21 -78 -25 0 -5 29 -10 65 -12 l66 -3 -316 -503 -316 -502 3
-124 3 -124 204 327 c113 179 291 462 395 628 l191 302 87 3 88 3 0 -57 c0
-57 0 -57 -32 -62 -116 -16 -132 -22 -151 -48 -46 -62 -25 -177 38 -207 40
-19 253 -27 326 -12 87 18 93 26 97 118 5 95 -9 119 -82 137 l-48 12 108 70
c60 39 121 78 136 88 l26 17 -8 -37 c-5 -20 -6 -42 -4 -49 3 -7 39 -18 82 -24
42 -6 199 -41 347 -77 277 -68 379 -83 546 -84 l96 0 6 -74 c5 -71 23 -122 55
-159 8 -9 20 -27 26 -39 19 -36 81 -79 123 -85 84 -11 215 50 267 125 80 117
-43 327 -224 383 -19 6 -45 15 -57 21 -16 8 -26 8 -36 -1 -12 -9 -15 -4 -21
26 -12 76 -10 80 42 91 26 6 103 18 172 27 69 9 139 18 155 21 l30 4 0 159 0
159 -55 6 c-112 13 -328 48 -341 57 -11 7 -11 24 4 112 10 57 15 111 12 119
-11 27 -58 41 -160 45 -191 9 -346 -10 -615 -76 -135 -34 -291 -69 -348 -78
l-104 -18 4 -47 c2 -27 1 -48 0 -48 -4 0 -173 109 -181 116 -2 2 7 21 21 41
13 21 42 67 63 103 22 36 54 86 73 113 32 44 37 47 78 47 48 0 150 35 219 75
41 25 48 26 95 16 107 -23 190 -2 255 65 l43 44 6 -26 c9 -33 64 -58 101 -44
29 11 94 106 114 168 13 38 17 42 48 42 49 0 42 24 -14 48 -34 14 -53 18 -65
11 -16 -9 -18 -5 -18 29 0 21 -9 55 -20 77 -11 22 -20 41 -20 42 0 2 16 3 35
3 49 0 45 21 -11 48 -41 20 -49 21 -68 9 -14 -10 -38 -13 -72 -10 -72 7 -188
-20 -283 -65 -45 -21 -80 -34 -78 -28 3 6 36 61 74 122 39 61 65 111 59 111
-6 0 -32 15 -58 33 -34 24 -45 37 -38 45 8 9 4 11 -14 8 -36 -7 -118 20 -348
113 -115 46 -247 96 -295 110 -112 33 -254 41 -333 19z m1177 -630 c38 -25 57
-81 44 -125 -6 -20 -21 -45 -33 -56 l-22 -19 16 26 c45 72 12 158 -74 187
l-33 12 39 -5 c21 -2 49 -11 63 -20z m-207 -35 c-6 -11 -18 -20 -28 -20 -14 1
-13 4 7 20 29 25 34 25 21 0z m63 -6 c-24 -12 -36 -27 -45 -56 -7 -23 -15 -35
-20 -30 -14 14 18 81 44 92 39 15 55 10 21 -6z m117 -204 c-27 -22 -93 -43
-115 -38 -29 6 19 48 70 61 60 16 81 5 45 -23z m-1102 -26 c-30 -9 -54 -25
-68 -44 -24 -33 -29 -95 -11 -128 7 -12 9 -22 7 -22 -13 0 -36 63 -36 98 0 67
48 111 120 111 35 0 34 -1 -12 -15z m-48 -63 c-14 -28 -12 -64 5 -87 17 -22
19 -34 6 -34 -5 0 -16 16 -25 35 -17 35 -15 66 6 93 16 18 20 14 8 -7z m1730
-324 c40 -20 39 -68 -3 -131 -19 -29 -42 -53 -50 -53 -11 0 -6 14 18 51 19 28
37 63 40 78 6 24 3 28 -22 35 -37 11 -217 7 -321 -6 -45 -6 -151 -27 -235 -46
-217 -52 -384 -85 -424 -85 -34 0 -34 -1 -27 -32 15 -57 11 -132 -6 -135 -12
-3 -15 12 -15 89 l0 93 105 18 c58 10 193 38 300 63 107 25 238 52 290 59 126
17 317 18 350 2z m-1192 -220 c137 -89 136 -108 -6 -124 l-84 -9 -38 76 c-36
71 -37 77 -23 104 9 18 21 26 31 23 9 -2 63 -34 120 -70z m672 -36 c0 -5 -20
-44 -45 -85 -25 -42 -45 -82 -45 -89 0 -7 20 -46 45 -87 25 -41 45 -78 45 -81
0 -5 -71 3 -272 32 l-78 11 0 128 0 128 88 12 c48 7 123 18 167 25 44 7 83 13
88 14 4 0 7 -3 7 -8z m-860 -62 c12 -23 20 -42 18 -44 -2 -1 -20 -5 -40 -8
-35 -5 -38 -4 -38 19 0 21 26 74 36 74 2 0 13 -18 24 -41z m1 -168 l27 -6 -44
-85 -43 -85 0 93 c-1 100 -2 98 60 83z m198 -27 c56 -5 74 -11 82 -26 6 -10 9
-23 7 -28 -3 -10 -311 -210 -316 -206 -1 2 27 65 63 141 46 97 69 136 79 132
8 -3 46 -9 85 -13z m167 -78 c-3 -22 -9 -58 -12 -78 -7 -38 -6 -38 27 -38 36
0 214 -36 467 -94 229 -52 478 -70 531 -37 19 12 8 48 -34 111 -26 39 -31 51
-17 48 23 -4 82 -105 82 -140 0 -17 -7 -31 -19 -37 -66 -36 -314 -18 -571 40
-261 60 -409 89 -447 89 -43 0 -50 17 -35 86 7 33 7 65 2 84 -8 28 -7 29 12
19 17 -9 20 -17 14 -53z m1229 -252 c49 -23 83 -55 109 -101 16 -29 -4 -10
-24 21 -16 27 -33 38 -73 50 -29 8 -62 13 -73 10 -17 -4 -22 0 -26 20 -7 34
14 34 87 0z m-125 -128 c0 -37 7 -67 25 -100 22 -41 23 -47 8 -44 -29 5 -80
82 -87 132 -8 54 -3 66 30 66 22 0 24 -3 24 -54z m226 -38 c5 -28 1 -40 -21
-64 -22 -24 -24 -24 -11 -4 18 27 21 67 7 90 -12 17 -3 36 10 23 6 -6 12 -25
15 -45z m34 -26 c0 -37 -6 -50 -35 -79 -33 -33 -39 -35 -86 -31 -28 3 -56 11
-62 19 -7 8 -8 11 -3 7 20 -16 98 -8 126 12 33 24 55 79 46 118 -5 20 -4 23 4
12 5 -8 10 -35 10 -58z"/>
<path d="M2863 4626 c-28 -14 -69 -42 -90 -64 -38 -39 -39 -40 -71 -26 -111
46 -312 57 -474 24 -103 -21 -155 -42 -315 -128 l-93 -50 26 -17 c20 -13 23
-19 14 -30 -7 -8 59 22 147 65 119 60 177 84 235 95 142 28 351 15 441 -26
l27 -12 -30 -40 c-33 -45 -38 -78 -14 -98 12 -10 22 -10 45 -2 27 10 29 10 29
-12 0 -30 16 -40 37 -23 24 19 53 88 53 126 1 114 138 164 210 76 11 -12 6
-11 -20 5 -41 25 -71 26 -114 6 -60 -28 -85 -106 -59 -183 31 -89 -2 -231 -74
-326 -39 -51 -70 -74 -208 -154 -88 -52 -140 -110 -151 -169 -15 -81 21 -114
154 -143 65 -14 103 -27 124 -45 41 -34 62 -33 53 2 -13 54 -43 72 -155 97
-41 10 -85 24 -97 32 -59 38 4 123 148 200 50 26 113 68 140 92 62 56 125 179
142 278 12 69 12 69 38 60 36 -12 76 0 95 29 9 13 18 52 21 85 4 44 9 60 19
56 24 -9 36 20 25 59 -9 35 -8 39 20 62 56 48 61 90 13 111 -14 7 -72 12 -132
12 -92 0 -114 -4 -159 -24z m50 -313 c12 -14 32 -23 49 -23 15 0 28 -4 28 -10
0 -15 -37 -12 -69 5 -29 15 -42 34 -40 63 0 14 2 14 6 2 3 -8 15 -25 26 -37z"/>
<path d="M1358 4083 c-10 -2 -18 -13 -18 -24 0 -14 7 -19 30 -19 25 0 30 4 30
25 0 25 -7 27 -42 18z"/>
<path d="M3555 3690 c-3 -5 -3 -20 1 -34 5 -22 8 -24 30 -14 27 13 28 16 10
41 -15 19 -32 22 -41 7z"/>
<path d="M3280 3569 c-65 -11 -86 -32 -95 -94 -14 -90 19 -149 88 -160 85 -13
87 -8 -30 -128 -59 -62 -115 -113 -125 -115 -16 -3 -18 -17 -18 -153 0 -122 3
-149 14 -149 13 0 237 -230 244 -251 2 -5 -14 -9 -35 -9 -72 0 -113 -18 -129
-55 -19 -46 -18 -113 4 -155 14 -29 25 -37 67 -47 63 -14 256 -16 315 -2 73
17 80 29 80 130 0 103 -8 113 -100 126 l-55 8 -3 131 -3 131 32 7 c17 3 119 6
225 6 l194 0 0 -34 c0 -30 -6 -38 -52 -67 -109 -70 -150 -122 -167 -213 l-8
-43 207 -2 207 -2 7 23 c8 31 8 784 -1 883 l-6 78 -199 -5 c-109 -3 -201 -8
-204 -11 -3 -3 -3 -24 1 -47 11 -64 61 -128 143 -183 66 -44 72 -51 72 -83 l0
-34 -225 0 -225 0 0 125 0 124 38 6 c66 11 102 26 112 46 6 11 9 56 8 102 l-3
82 -39 19 c-31 15 -66 20 -160 22 -67 2 -146 -1 -176 -7z m140 -409 l0 -100
-35 0 -35 0 0 67 c0 62 2 70 32 100 18 18 33 33 35 33 2 0 3 -45 3 -100z
m-140 -70 c0 -27 -3 -30 -32 -30 l-32 0 29 30 c16 17 30 30 32 30 2 0 3 -13 3
-30z m0 -342 l0 -32 -30 29 c-16 16 -30 30 -30 32 0 2 14 3 30 3 27 0 30 -3
30 -32z m140 -75 l0 -107 -35 34 c-34 33 -35 37 -35 107 l0 73 35 0 35 0 0
-107z"/>
<path d="M2650 3451 c-12 -23 -13 -51 -2 -51 4 1 14 16 23 35 13 28 14 35 3
35 -7 0 -18 -9 -24 -19z"/>
<path d="M2652 3359 c-15 -23 -15 -22 15 -38 20 -10 23 -9 29 13 11 46 -20 63
-44 25z"/>
<path d="M4602 2440 c-16 -20 -19 -31 -11 -36 14 -8 49 30 49 52 0 21 -13 16
-38 -16z"/>
<path d="M4512 2431 l-23 -17 21 -19 c20 -18 21 -18 35 1 18 24 18 29 2 42 -9
8 -19 6 -35 -7z"/>
<path d="M3895 2145 c-58 -31 -120 -80 -197 -154 -63 -60 -73 -93 -44 -149 8
-17 10 -35 5 -47 -4 -11 -8 -37 -8 -57 -1 -54 33 -78 113 -78 36 0 70 -6 81
-14 27 -19 121 -46 159 -46 123 0 191 79 212 245 14 108 0 145 -69 175 -30 13
-56 38 -90 84 -43 58 -53 66 -81 66 -18 0 -55 -11 -81 -25z m236 -191 c9 -12
6 -13 -20 -8 -20 4 -37 2 -48 -7 -14 -11 -13 -9 2 12 20 27 45 28 66 3z m-247
-117 c5 -21 18 -33 47 -46 43 -20 39 -38 -4 -22 -34 13 -57 49 -56 86 1 32 3
28 13 -18z m203 -28 c-13 -101 -135 -143 -202 -69 -15 16 -12 16 25 -2 36 -18
46 -19 80 -9 43 13 78 51 87 93 9 43 16 33 10 -13z m-337 -59 c12 -8 11 -10
-7 -10 -13 0 -23 5 -23 10 0 13 11 13 30 0z"/>
<path d="M1292 2004 c-34 -7 -91 -25 -126 -39 -64 -25 -65 -26 -116 -9 -69 23
-174 15 -225 -16 -20 -12 -63 -57 -96 -99 -33 -42 -68 -85 -78 -96 -48 -53
-56 -134 -18 -199 44 -77 115 -102 204 -72 26 8 84 27 127 41 98 31 133 53
189 115 33 37 60 55 108 73 90 34 181 81 203 106 36 40 1 168 -55 196 -33 17
-34 17 -117 -1z m-272 -111 c0 -18 -37 -43 -64 -43 -17 0 -43 -6 -57 -14 -24
-12 -25 -12 -21 10 2 13 18 29 36 38 31 15 106 22 106 9z m-175 -103 c-38 -73
-8 -147 70 -175 38 -14 39 -14 10 -15 -68 0 -134 76 -120 141 6 26 40 79 51
79 2 0 -2 -13 -11 -30z m219 -73 c-9 -32 -42 -64 -69 -70 -14 -2 -22 0 -19 4
3 5 11 9 18 9 18 0 43 30 51 62 4 16 11 25 16 22 6 -3 7 -15 3 -27z m36 -51
c0 -6 -65 -46 -74 -46 -13 0 49 49 62 50 6 0 12 -2 12 -4z m-93 -52 c-3 -3
-12 -4 -19 -1 -8 3 -5 6 6 6 11 1 17 -2 13 -5z"/>
<path d="M1502 1858 c-17 -17 -15 -31 7 -45 16 -10 22 -9 32 3 17 21 -20 61
-39 42z"/>
<path d="M2758 1784 c-20 -10 -32 -29 -43 -69 -9 -30 -14 -64 -10 -75 5 -16 2
-20 -17 -18 -22 3 -23 0 -21 -49 2 -42 -1 -53 -16 -58 -30 -9 -63 -51 -59 -76
6 -45 43 -58 168 -61 103 -2 120 0 162 21 51 25 128 95 128 116 0 7 18 37 40
66 49 66 58 95 36 117 -13 13 -22 14 -44 6 -27 -10 -30 -9 -40 19 -11 29 -12
30 -31 13 -11 -10 -27 -33 -36 -52 -9 -19 -19 -34 -23 -34 -4 0 -14 21 -22 48
-13 40 -22 51 -65 74 -57 31 -70 33 -107 12z m124 -52 c9 -9 19 -30 23 -47 l6
-30 -15 32 c-16 34 -43 53 -75 53 -12 0 -21 5 -21 11 0 17 61 2 82 -19z m78
-112 c0 -25 -30 -78 -55 -98 -35 -28 -89 -28 -132 -2 -41 25 -43 36 -3 15 50
-26 97 -20 136 19 19 19 34 43 34 55 0 12 5 21 10 21 6 0 10 -5 10 -10z"/>
<path d="M1596 1764 c-15 -13 -22 -24 -17 -24 6 0 11 -11 11 -25 0 -20 -5 -25
-24 -25 -51 0 -96 -68 -96 -144 0 -14 -4 -26 -10 -26 -5 0 -10 6 -10 13 0 7
-11 13 -25 13 -14 0 -25 -4 -25 -8 0 -17 -3 -24 -23 -63 -13 -26 -21 -61 -22
-99 l-1 -59 -64 -44 c-183 -123 -576 -271 -879 -330 -112 -21 -291 -22 -348
-1 l-43 16 0 -38 c0 -37 1 -38 48 -50 65 -16 239 -14 347 5 275 48 672 194
866 320 53 34 74 44 78 34 8 -26 86 -90 143 -117 54 -26 57 -29 57 -64 1 -21
5 -38 11 -38 16 0 63 89 57 110 -4 17 0 20 33 20 20 0 56 7 79 15 l41 14 0
-40 c0 -52 15 -48 49 13 23 40 24 49 12 70 -10 19 -10 34 -1 66 20 78 -24 286
-80 378 -17 26 -81 90 -126 123 -6 5 -22 -2 -38 -15z m84 -119 c12 -19 19 -41
17 -48 -4 -8 -6 -7 -6 4 -1 8 -12 26 -26 39 -26 24 -32 40 -16 40 5 0 19 -16
31 -35z m-57 -7 c31 -16 46 -39 46 -68 -1 -20 -2 -21 -6 -5 -8 31 -44 65 -70
65 -13 0 -23 5 -23 10 0 13 26 13 53 -2z m84 -80 c-3 -8 -6 -5 -6 6 -1 11 2
17 5 13 3 -3 4 -12 1 -19z m3 -83 c-16 -48 -63 -85 -108 -85 -39 0 -102 32
-102 52 0 6 -10 2 -23 -10 -28 -27 -50 -29 -43 -4 3 9 8 29 11 44 8 31 35 47
35 20 0 -10 14 -31 31 -48 25 -24 39 -29 79 -29 56 0 92 26 112 82 16 44 23
24 8 -22z"/>
</g>
</svg>
